<svg width="25" height="24" viewBox="0 0 25 24" fill="none" xmlns="http://www.w3.org/2000/svg">
<g clip-path="url(#clip0_48_664)">
<path fill-rule="evenodd" clip-rule="evenodd" d="M12.5 5.50004C11.2789 5.50031 10.0825 5.84456 9.048 6.49334C8.01348 7.14213 7.18263 8.06921 6.65066 9.16837C6.11869 10.2675 5.9071 11.4943 6.04014 12.7082C6.17317 13.922 6.64546 15.0739 7.40288 16.0317C8.16029 16.9896 9.17221 17.7147 10.3227 18.124C11.4732 18.5333 12.7157 18.6103 13.9079 18.346C15.1001 18.0818 16.1938 17.4871 17.0636 16.63C17.9334 15.773 18.5442 14.6882 18.826 13.5H13.5C13.1022 13.5 12.7206 13.342 12.4393 13.0607C12.158 12.7794 12 12.3979 12 12C12 11.6022 12.158 11.2207 12.4393 10.9394C12.7206 10.6581 13.1022 10.5 13.5 10.5H20.5C20.8978 10.5 21.2794 10.6581 21.5607 10.9394C21.842 11.2207 22 11.6022 22 12C22 14.1968 21.2387 16.3257 19.8457 18.0242C18.4526 19.7228 16.514 20.8862 14.3598 21.3162C12.2055 21.7462 9.9688 21.4164 8.03037 20.3829C6.09194 19.3493 4.5716 17.6759 3.72815 15.6476C2.8847 13.6192 2.77027 11.3612 3.40434 9.25794C4.03841 7.15469 5.38179 5.33618 7.2058 4.11196C9.02981 2.88775 11.2217 2.33349 13.4084 2.54354C15.5951 2.7536 17.6414 3.71498 19.199 5.26404C19.3387 5.40298 19.4496 5.56806 19.5254 5.74987C19.6013 5.93168 19.6406 6.12665 19.6411 6.32365C19.6416 6.52065 19.6033 6.71582 19.5284 6.89802C19.4535 7.08022 19.3434 7.24588 19.2045 7.38554C19.0656 7.5252 18.9005 7.63612 18.7187 7.71198C18.5369 7.78785 18.3419 7.82715 18.1449 7.82766C17.747 7.82869 17.3651 7.67164 17.083 7.39104C15.8664 6.17812 14.2179 5.49794 12.5 5.50004Z" fill="black"/>
</g>
<defs>
<clipPath id="clip0_48_664">
<rect width="24" height="24" fill="white" transform="translate(0.5)"/>
</clipPath>
</defs>
</svg>
