<?xml version="1.0" encoding="UTF-8" standalone="no"?><!DOCTYPE svg PUBLIC "-//W3C//DTD SVG 1.1//EN" "http://www.w3.org/Graphics/SVG/1.1/DTD/svg11.dtd"><svg width="100%" height="100%" viewBox="0 0 1214 943" version="1.1" xmlns="http://www.w3.org/2000/svg" xmlns:xlink="http://www.w3.org/1999/xlink" xml:space="preserve" xmlns:serif="http://www.serif.com/" style="fill-rule:evenodd;clip-rule:evenodd;stroke-linejoin:round;stroke-miterlimit:2;"><rect id="Artboard1" x="-588.587" y="-761.34" width="5905.51" height="3507.87" style="fill:none;"/><g id="Artboard11" serif:id="Artboard1"><g><path d="M316.837,0c175.785,0 319.247,142.715 320.167,318.5c0.921,175.785 -141.047,318.5 -316.832,318.5c-175.785,0 -319.247,-142.715 -320.168,-318.5c-0.92,-175.785 141.048,-318.5 316.833,-318.5Z" style="fill:#f5919d;"/><path d="M943.919,100.893c147.943,-0 268.682,120.111 269.457,268.053c0.775,147.943 -118.707,268.054 -266.65,268.054c-147.943,0 -268.683,-120.111 -269.457,-268.054c-0.775,-147.942 118.707,-268.053 266.65,-268.053Z" style="fill:#f5919d;"/><path d="M944.141,143.349c124.511,0 226.127,101.087 226.779,225.597c0.652,124.511 -99.906,225.598 -224.417,225.598c-124.51,-0 -226.126,-101.087 -226.778,-225.598c-0.652,-124.51 99.905,-225.597 224.416,-225.597Z" style="fill:#e5e0e4;"/><path d="M317.101,50.446c147.943,0 268.682,120.111 269.457,268.054c0.775,147.943 -118.707,268.054 -266.65,268.054c-147.943,-0 -268.683,-120.111 -269.457,-268.054c-0.775,-147.943 118.707,-268.054 266.65,-268.054Z" style="fill:#e5e0e4;"/><path d="M925.978,210.678c87.351,0 158.64,70.918 159.097,158.268c0.457,87.351 -70.089,158.269 -157.44,158.269c-87.35,-0 -158.639,-70.918 -159.097,-158.269c-0.457,-87.35 70.089,-158.268 157.44,-158.268Z" style="fill:#352320;"/><path d="M355.52,130.446c103.789,0 188.495,84.264 189.038,188.054c0.544,103.79 -83.279,188.054 -187.069,188.054c-103.79,-0 -188.495,-84.264 -189.038,-188.054c-0.544,-103.79 83.279,-188.054 187.069,-188.054Z" style="fill:#352320;"/><path d="M636.5,511.445c2.274,-3.078 5.875,-4.891 9.712,-4.891c3.836,-0 7.456,1.813 9.762,4.891c31.169,41.595 127.324,169.913 151.161,201.723c3.199,4.269 3.229,10.115 0.076,14.383c-23.523,31.835 -118.464,160.329 -149.121,201.821c-2.257,3.055 -5.831,4.855 -9.639,4.855c-3.808,-0 -7.401,-1.8 -9.69,-4.855c-31.213,-41.653 -128.129,-170.988 -151.509,-202.188c-3.035,-4.05 -3.064,-9.598 -0.072,-13.648c23.036,-31.176 118.467,-160.334 149.32,-202.091Z" style="fill:#fed143;"/></g></g></svg>